# xmcd
#
# Track frame offsets:
#	150
#	10527
#	24489
#	36846
#	50208
#	60158
#	73712
#	83507
#	94151
#	105469
#	116431
#	130466
#	139636
#	150678
#	161056
#	172366
#	185135
#
# Disc length: 2623 seconds
#
# Revision: 0
# Processed by: cddbd v1.5.2PL0 Copyright (c) Steve Scherf et al.
# Submitted via: audiograbber 1.83.01
#
DISCID=e30a3d11
DTITLE=Various Artist - Zimp's Picks Vol 1
DYEAR=1900
DGENRE=
TTITLE0=Chuck Higgins - Big Fat Mama
TTITLE1=Screamin Jay Hawkins - Bite It
TTITLE2=Iam Whitcomb - Fizz
TTITLE3=Combonettes - Hi Diddle Diddle
TTITLE4=Ensenators - I Had A Little Too Much
TTITLE5=Delaney And Bonnie - Miss Ann
TTITLE6=Chuck Higgins - Real Gone Hound Dog
TTITLE7=Ze Majestiks - Saphire Part 1
TTITLE8=Porgy And Monarchs - Stay
TTITLE9=Preludes - That Would Be So Good
TTITLE10=Jr Walker - Tune Up
TTITLE11=Kingsfive - Voodoo Man
TTITLE12=Screamin Jay Hawkins - What That Is
TTITLE13=Nathaniel Mayer - Work It Out
TTITLE14=Percy Sledge - Angels Listened In
TTITLE15=Miracles - After All
TTITLE16=KacTies - Happy Birthday
EXTD=
EXTT0=
EXTT1=
EXTT2=
EXTT3=
EXTT4=
EXTT5=
EXTT6=
EXTT7=
EXTT8=
EXTT9=
EXTT10=
EXTT11=
EXTT12=
EXTT13=
EXTT14=
EXTT15=
EXTT16=
PLAYORDER=
